<?xml version="1.0" encoding="UTF-8"?>
<svg width="181px" height="84px" viewBox="0 0 181 84" version="1.1" xmlns="http://www.w3.org/2000/svg" xmlns:xlink="http://www.w3.org/1999/xlink">
    <!-- Generator: Sketch 52.3 (67297) - http://www.bohemiancoding.com/sketch -->
    <title>Logo/Renault Digital/Block</title>
    <desc>Created with Sketch.</desc>
    <g id="Logo/Renault-Digital/Block" stroke="none" stroke-width="1" fill="none" fill-rule="evenodd">
        <path d="M1,0.7 L14.3,0.7 C17.300015,0.7 19.633325,1.45832575 21.3,2.975 C22.966675,4.49167425 23.8,6.7999845 23.8,9.9 C23.8,12.300012 23.3166715,14.2583257 22.35,15.775 C21.3833285,17.2916742 19.8833435,18.2666645 17.85,18.7 L17.85,18.8 C19.650009,19.066668 20.9666625,19.6499955 21.8,20.55 C22.6333375,21.4500045 23.149999,22.89999 23.35,24.9 C23.416667,25.56667 23.4666665,26.2916627 23.5,27.075 C23.5333335,27.8583372 23.5666665,28.7333285 23.6,29.7 C23.666667,31.6000095 23.766666,33.049995 23.9,34.05 C24.100001,35.050005 24.53333,35.7333315 25.2,36.1 L25.2,36.4 L17.4,36.4 C17.0333315,35.8999975 16.8000005,35.3250032 16.7,34.675 C16.5999995,34.0249967 16.5333335,33.3500035 16.5,32.65 L16.3,25.8 C16.233333,24.399993 15.8833365,23.300004 15.25,22.5 C14.6166635,21.699996 13.5500075,21.3 12.05,21.3 L8.2,21.3 L8.2,36.4 L1,36.4 L1,0.7 Z M8.2,16.3 L11.2,16.3 C12.933342,16.3 14.266662,15.8916707 15.2,15.075 C16.133338,14.2583292 16.6,12.883343 16.6,10.95 C16.6,7.6499835 14.93335,6 11.6,6 L8.2,6 L8.2,16.3 Z M48.75,0.7 L28.8,0.7 L28.8,36.4 L49.25,36.4 L49.25,30.5 L36,30.5 L36,20.9 L48,20.9 L48,15 L36,15 L36,6.6 L48.75,6.6 L48.75,0.7 Z M61.15,0.7 L52.85,0.7 L52.85,36.4 L59.45,36.4 L59.45,11.4 L59.55,11.4 L68.35,36.4 L76.55,36.4 L76.55,0.7 L69.95,0.7 L69.95,25.15 L69.85,25.15 L61.15,0.7 Z M96.45,22.95 L93,6.9 L92.9,6.9 L89.45,22.95 L96.45,22.95 Z M97.4,0.7 L106.85,36.4 L99.35,36.4 L97.7,28.85 L88.2,28.85 L86.55,36.4 L79.05,36.4 L88.5,0.7 L97.4,0.7 Z M116.1,0.7 L108.9,0.7 L108.9,25.6 C108.9,28.000012 109.216664,29.9499925 109.85,31.45 C110.483337,32.9500075 111.333328,34.1083292 112.4,34.925 C113.466672,35.7416707 114.683327,36.283332 116.05,36.55 C117.416674,36.816668 118.833326,36.95 120.3,36.95 C121.766674,36.95 123.183327,36.8000015 124.55,36.5 C125.916674,36.1999985 127.133328,35.616671 128.2,34.75 C129.266672,33.883329 130.116664,32.7083407 130.75,31.225 C131.383337,29.7416592 131.7,27.866678 131.7,25.6 L131.7,0.7 L124.5,0.7 L124.5,25.6 C124.5,26.5000045 124.441667,27.3249962 124.325,28.075 C124.208333,28.8250037 123.991668,29.4749972 123.675,30.025 C123.358332,30.5750027 122.933336,31.0083317 122.4,31.325 C121.866664,31.6416682 121.166671,31.8 120.3,31.8 C119.466663,31.8 118.775003,31.6416682 118.225,31.325 C117.674997,31.0083317 117.241668,30.5750027 116.925,30.025 C116.608332,29.4749972 116.391667,28.8250037 116.275,28.075 C116.158333,27.3249962 116.1,26.5000045 116.1,25.6 L116.1,0.7 Z M136.25,36.4 L156.2,36.4 L156.2,30.5 L143.45,30.5 L143.45,0.7 L136.25,0.7 L136.25,36.4 Z M180.3,0.7 L157.5,0.7 L157.5,6.6 L165.3,6.6 L165.3,36.4 L172.5,36.4 L172.5,6.6 L180.3,6.6 L180.3,0.7 Z M7.95,78.1 L11.15,78.1 C12.416673,78.1 13.4333295,77.8833355 14.2,77.45 C14.9666705,77.0166645 15.5749978,76.300005 16.025,75.3 C16.4750023,74.299995 16.7749993,72.9833415 16.925,71.35 C17.0750008,69.7166585 17.15,67.6833455 17.15,65.25 C17.15,63.2166565 17.083334,61.433341 16.95,59.9 C16.816666,58.366659 16.5416688,57.0916717 16.125,56.075 C15.7083313,55.0583282 15.0916708,54.2916692 14.275,53.775 C13.4583293,53.2583307 12.3666735,53 11,53 L7.95,53 L7.95,78.1 Z M0.75,47.7 L12.55,47.7 C15.0500125,47.7 17.066659,48.1083292 18.6,48.925 C20.133341,49.7416707 21.3249957,50.9083257 22.175,52.425 C23.0250043,53.9416742 23.5999985,55.766656 23.9,57.9 C24.2000015,60.033344 24.35,62.4166535 24.35,65.05 C24.35,68.183349 24.1583352,70.9083217 23.775,73.225 C23.3916648,75.5416782 22.733338,77.4499925 21.8,78.95 C20.866662,80.4500075 19.6166745,81.566663 18.05,82.3 C16.4833255,83.033337 14.500012,83.4 12.1,83.4 L0.75,83.4 L0.75,47.7 Z M29.45,83.4 L36.65,83.4 L36.65,47.7 L29.45,47.7 L29.45,83.4 Z M57.85,58.3 L64.75,58.3 C64.75,54.6666485 63.883342,51.8750097 62.15,49.925 C60.416658,47.9749902 57.583353,47 53.65,47 C51.3499885,47 49.433341,47.3833295 47.9,48.15 C46.366659,48.9166705 45.133338,50.0583257 44.2,51.575 C43.266662,53.0916742 42.6083353,54.983322 42.225,57.25 C41.8416648,59.516678 41.65,62.149985 41.65,65.15 C41.65,68.2500155 41.783332,70.9749882 42.05,73.325 C42.316668,75.6750117 42.8416628,77.649992 43.625,79.25 C44.4083373,80.850008 45.4916598,82.0333295 46.875,82.8 C48.2583403,83.5666705 50.049989,83.95 52.25,83.95 C53.9500085,83.95 55.4083273,83.6583362 56.625,83.075 C57.8416728,82.4916638 58.883329,81.500007 59.75,80.1 L59.85,80.1 L59.85,83.4 L65.15,83.4 L65.15,64.15 L53.5,64.15 L53.5,69.45 L58.25,69.45 L58.25,73.1 C58.25,74.0666715 58.1000015,74.9083297 57.8,75.625 C57.4999985,76.3416702 57.1250023,76.933331 56.675,77.4 C56.2249978,77.866669 55.7416693,78.2166655 55.225,78.45 C54.7083308,78.6833345 54.2333355,78.8 53.8,78.8 C52.7666615,78.8 51.9250033,78.4750032 51.275,77.825 C50.6249968,77.1749967 50.1250018,76.2416727 49.775,75.025 C49.4249983,73.8083272 49.183334,72.333342 49.05,70.6 C48.916666,68.866658 48.85,66.933344 48.85,64.8 C48.85,60.333311 49.2333295,57.133343 50,55.2 C50.7666705,53.266657 52.016658,52.3 53.75,52.3 C54.483337,52.3 55.1083308,52.4916647 55.625,52.875 C56.1416693,53.2583352 56.566665,53.7416637 56.9,54.325 C57.233335,54.9083362 57.4749993,55.5499965 57.625,56.25 C57.7750008,56.9500035 57.85,57.63333 57.85,58.3 Z M70.15,83.4 L77.35,83.4 L77.35,47.7 L70.15,47.7 L70.15,83.4 Z M103.6,47.7 L80.8,47.7 L80.8,53.6 L88.6,53.6 L88.6,83.4 L95.8,83.4 L95.8,53.6 L103.6,53.6 L103.6,47.7 Z M121.6,69.95 L118.15,53.9 L118.05,53.9 L114.6,69.95 L121.6,69.95 Z M122.55,47.7 L132,83.4 L124.5,83.4 L122.85,75.85 L113.35,75.85 L111.7,83.4 L104.2,83.4 L113.65,47.7 L122.55,47.7 Z M134.5,83.4 L154.45,83.4 L154.45,77.5 L141.7,77.5 L141.7,47.7 L134.5,47.7 L134.5,83.4 Z" id="Logo-Renault-Digital-2-lignes" fill="#000000"></path>
    </g>
</svg>