<?xml version="1.0" encoding="UTF-8"?>
<svg width="110px" height="34px" viewBox="0 0 110 34" version="1.1" xmlns="http://www.w3.org/2000/svg" xmlns:xlink="http://www.w3.org/1999/xlink">
    <!-- Generator: Sketch 51.2 (57519) - http://www.bohemiancoding.com/sketch -->
    <title>renault</title>
    <desc>Created with Sketch.</desc>
    <defs>
        <linearGradient x1="50.038515%" y1="100.0011%" x2="50.038515%" y2="0.0342741935%" id="linearGradient-1">
            <stop stop-color="#E5E5E5" offset="0%"></stop>
            <stop stop-color="#FFFFFF" offset="68.66%"></stop>
            <stop stop-color="#919191" offset="100%"></stop>
        </linearGradient>
        <radialGradient cx="43.5111943%" cy="25.8157991%" fx="43.5111943%" fy="25.8157991%" r="62.9688516%" gradientTransform="translate(0.435112,0.258158),scale(1.000000,0.781889),translate(-0.435112,-0.258158)" id="radialGradient-2">
            <stop stop-color="#FFFFFF" offset="40.1%"></stop>
            <stop stop-color="#919191" offset="100%"></stop>
        </radialGradient>
        <linearGradient x1="49.9327655%" y1="99.6799294%" x2="49.9327655%" y2="0.878884128%" id="linearGradient-3">
            <stop stop-color="#E5E5E5" offset="1.04233%"></stop>
            <stop stop-color="#A7A7A7" offset="33.85%"></stop>
            <stop stop-color="#303030" offset="69.41%"></stop>
            <stop stop-color="#131313" offset="84.52%"></stop>
            <stop stop-color="#090909" offset="94.8%"></stop>
            <stop stop-color="#0C0C0C" offset="96.19%"></stop>
            <stop stop-color="#151515" offset="97.2%"></stop>
            <stop stop-color="#252525" offset="98.1%"></stop>
            <stop stop-color="#3C3C3C" offset="98.92%"></stop>
            <stop stop-color="#595959" offset="99.7%"></stop>
            <stop stop-color="#666666" offset="100%"></stop>
        </linearGradient>
        <linearGradient x1="50.101711%" y1="99.0158037%" x2="50.101711%" y2="0.349023774%" id="linearGradient-4">
            <stop stop-color="#E5E5E5" offset="1.04233%"></stop>
            <stop stop-color="#A7A7A7" offset="33.85%"></stop>
            <stop stop-color="#303030" offset="69.41%"></stop>
            <stop stop-color="#131313" offset="84.52%"></stop>
            <stop stop-color="#090909" offset="95.38%"></stop>
            <stop stop-color="#0C0C0C" offset="96.61%"></stop>
            <stop stop-color="#151515" offset="97.51%"></stop>
            <stop stop-color="#252525" offset="98.31%"></stop>
            <stop stop-color="#3C3C3C" offset="99.04%"></stop>
            <stop stop-color="#595959" offset="99.73%"></stop>
            <stop stop-color="#666666" offset="100%"></stop>
        </linearGradient>
        <linearGradient x1="49.9892458%" y1="99.3717664%" x2="49.9892458%" y2="-0.654545455%" id="linearGradient-5">
            <stop stop-color="#303030" offset="0%"></stop>
            <stop stop-color="#222222" offset="1.086217%"></stop>
            <stop stop-color="#171717" offset="2.473522%"></stop>
            <stop stop-color="#131313" offset="4.00373%"></stop>
            <stop stop-color="#0E0E0E" offset="13.96%"></stop>
            <stop stop-color="#000000" offset="25.21%"></stop>
        </linearGradient>
        <linearGradient x1="50.058753%" y1="99.9849298%" x2="50.058753%" y2="-0.0712643678%" id="linearGradient-6">
            <stop stop-color="#747474" offset="0%"></stop>
            <stop stop-color="#6F6F6F" offset="14.11%"></stop>
            <stop stop-color="#5F5F5F" offset="31.57%"></stop>
            <stop stop-color="#464646" offset="50.81%"></stop>
            <stop stop-color="#242424" offset="71.18%"></stop>
            <stop stop-color="#131313" offset="79.54%"></stop>
            <stop stop-color="#000000" offset="92.07%"></stop>
        </linearGradient>
        <linearGradient x1="49.9903846%" y1="100.147959%" x2="49.9903846%" y2="0.168112245%" id="linearGradient-7">
            <stop stop-color="#BFBFBF" offset="35.71%"></stop>
            <stop stop-color="#BABABA" offset="47.44%"></stop>
            <stop stop-color="#ACACAC" offset="60.97%"></stop>
            <stop stop-color="#959595" offset="75.39%"></stop>
            <stop stop-color="#757575" offset="90.34%"></stop>
            <stop stop-color="#666666" offset="96.31%"></stop>
            <stop stop-color="#303030" offset="100%"></stop>
        </linearGradient>
        <linearGradient x1="123.976442%" y1="66.2531888%" x2="-47.4213942%" y2="25.230102%" id="linearGradient-8">
            <stop stop-color="#F1F1F1" stop-opacity="0.8" offset="1.32%"></stop>
            <stop stop-color="#EDEDED" stop-opacity="0" offset="10.96%"></stop>
        </linearGradient>
        <linearGradient x1="50.0439944%" y1="99.3957196%" x2="50.0439944%" y2="-0.50199262%" id="linearGradient-9">
            <stop stop-color="#FFFFFF" offset="0%"></stop>
            <stop stop-color="#F9F9F9" offset="21.63%"></stop>
            <stop stop-color="#E7E7E7" offset="51.16%"></stop>
            <stop stop-color="#CBCBCB" offset="85.08%"></stop>
            <stop stop-color="#BFBFBF" offset="96.93%"></stop>
            <stop stop-color="#747474" offset="99.13%"></stop>
        </linearGradient>
        <linearGradient x1="49.9339196%" y1="100.023731%" x2="49.9339196%" y2="0.0345961401%" id="linearGradient-10">
            <stop stop-color="#666666" offset="0%"></stop>
            <stop stop-color="#5D5D5D" offset="20.08%"></stop>
            <stop stop-color="#505050" offset="59.17%"></stop>
            <stop stop-color="#4C4C4C" offset="96.98%"></stop>
            <stop stop-color="#757575" offset="98.8%"></stop>
            <stop stop-color="#8C8C8C" offset="100%"></stop>
        </linearGradient>
        <linearGradient x1="12.7277228%" y1="-166.901429%" x2="88.9220651%" y2="277.405714%" id="linearGradient-11">
            <stop stop-color="#666666" offset="1.9312%"></stop>
            <stop stop-color="#626262" offset="2.179513%"></stop>
            <stop stop-color="#454545" offset="4.300772%"></stop>
            <stop stop-color="#313131" offset="6.411536%"></stop>
            <stop stop-color="#242424" offset="8.490101%"></stop>
            <stop stop-color="#202020" offset="10.5%"></stop>
        </linearGradient>
        <linearGradient x1="-23.6665423%" y1="27.4759259%" x2="124.846144%" y2="74.0371083%" id="linearGradient-12">
            <stop stop-color="#595959" offset="0%"></stop>
            <stop stop-color="#747474" offset="100%"></stop>
        </linearGradient>
        <linearGradient x1="95.408%" y1="198.831746%" x2="3.01042857%" y2="-95.552381%" id="linearGradient-13">
            <stop stop-color="#595959" offset="0.955204%"></stop>
            <stop stop-color="#767676" offset="2.580157%"></stop>
            <stop stop-color="#919191" offset="4.441745%"></stop>
            <stop stop-color="#A1A1A1" offset="6.100414%"></stop>
            <stop stop-color="#A7A7A7" offset="7.37603%"></stop>
            <stop stop-color="#BEBEBE" offset="50.11%"></stop>
            <stop stop-color="#BFBFBF" offset="100%"></stop>
        </linearGradient>
        <linearGradient x1="-22.4925373%" y1="66.4263008%" x2="120.965174%" y2="34.868995%" id="linearGradient-14">
            <stop stop-color="#8C8C8C" offset="0%"></stop>
            <stop stop-color="#747474" offset="98.68%"></stop>
            <stop stop-color="#BFBFBF" offset="100%"></stop>
        </linearGradient>
        <linearGradient x1="49.9957764%" y1="99.9749822%" x2="49.9957764%" y2="0.00682302772%" id="linearGradient-15">
            <stop stop-color="#202020" offset="1.90238%"></stop>
            <stop stop-color="#2C2C2C" offset="25.71%"></stop>
            <stop stop-color="#393939" offset="61.94%"></stop>
            <stop stop-color="#3D3D3D" offset="96.98%"></stop>
            <stop stop-color="#5D5D5D" offset="98.63%"></stop>
            <stop stop-color="#747474" offset="100%"></stop>
        </linearGradient>
        <radialGradient cx="49.9826087%" cy="49.9696292%" fx="49.9826087%" fy="49.9696292%" r="50.0263427%" gradientTransform="translate(0.499826,0.499696),scale(1.000000,0.987755),translate(-0.499826,-0.499696)" id="radialGradient-16">
            <stop stop-color="#FFFFFF" offset="0%"></stop>
            <stop stop-color="#FFFFFF" stop-opacity="0" offset="58.97%"></stop>
        </radialGradient>
    </defs>
    <g id="Create" stroke="none" stroke-width="1" fill="none" fill-rule="evenodd">
        <g id="SHARCK---Create-Set-Generic-Copy-2" transform="translate(-945.000000, -19.000000)">
            <g id="renault" transform="translate(945.000000, 19.000000)">
                <g>
                    <g id="Group" transform="translate(33.072790, 13.014509)" fill="#000000" fill-rule="nonzero">
                        <g id="Shape">
                            <polygon points="59.7296928 0.0354941167 59.7296928 1.4079333 56.9015602 1.4079333 56.9015602 7.45376451 54.996661 7.45376451 54.996661 1.4079333 52.1685284 1.4079333 52.1685284 0.0354941167"></polygon>
                            <polygon points="52.9748968 6.08132533 52.9748968 7.45376451 46.9096042 7.45376451 46.9096042 0.0236627445 48.8145034 0.0236627445 48.8145034 6.06949396 52.9748968 6.06949396"></polygon>
                            <polygon points="16.2442326 6.08132533 16.2442326 7.45376451 9.87509106 7.45376451 9.87509106 0.0236627445 16.1273677 0.0236627445 16.1273677 1.39610193 11.7799903 1.39610193 11.7799903 3.02883129 15.7417132 3.02883129 15.7417132 4.37760773 11.7799903 4.37760773 11.7799903 6.09315671 16.2442326 6.09315671"></polygon>
                            <path d="M6.46263356,4.69705478 C7.28068844,4.24746264 7.78320787,3.36010972 7.78320787,2.43726268 C7.78320787,1.66822349 7.5611644,1.0648235 7.09370447,0.674388218 C6.55612555,0.224796073 5.80818966,0.0354941167 4.55773434,0.0354941167 L0.186983973,0.0354941167 L0.105178485,0.485086262 C0.105178485,0.485086262 0.186983973,0.615231357 0.268789461,0.780870568 C0.409027441,1.01749801 0.397340942,1.08848625 0.397340942,1.24229409 L0.397340942,7.46559589 L2.30224017,7.46559589 L2.30224017,5.08749007 C2.30224017,5.08749007 3.97340942,5.08749007 4.67459932,5.08749007 L5.94842763,7.46559589 L8.05199733,7.46559589 L6.46263356,4.69705478 Z M5.4926542,3.50208618 C5.34072972,3.64406265 5.17711875,3.71505089 4.89664279,3.71505089 L2.29055367,3.71505089 L2.29055367,1.45525879 L4.34737737,1.45525879 C4.95507528,1.45525879 5.28229723,1.52624702 5.5043407,1.7037176 C5.71469767,1.88118819 5.81987615,2.14147838 5.81987615,2.54374503 C5.83156265,2.94601169 5.72638417,3.26545874 5.4926542,3.50208618 Z"></path>
                        </g>
                        <path d="M24.2377975,0.0354941167 L24.2377975,4.95734497 C23.7937105,4.3894391 23.3262506,3.84519598 22.5315687,2.96967443 C21.8888113,2.2597921 20.544864,0.79270194 19.8670471,0.0354941167 L18.0205804,0.0354941167 L17.9387749,0.485086262 C17.9387749,0.485086262 18.0205804,0.615231357 18.1023859,0.780870568 C18.2075644,0.958341152 18.2309373,1.04116076 18.2309373,1.13581174 C18.2309373,1.14764311 18.2309373,7.46559589 18.2309373,7.46559589 L19.9488526,7.46559589 L19.9488526,2.54374503 C20.287761,3.00516855 20.895459,3.71505089 21.3044864,4.16464303 C22.1108548,5.05199595 23.3379371,6.4362665 24.2845435,7.47742726 L25.9440262,7.47742726 L25.9440262,0.047325489 L24.2377975,0.0354941167 Z" id="Shape"></path>
                        <path d="M42.9128218,0.0354941167 L42.9128218,4.57874106 C42.9128218,5.08749007 42.8076433,5.38327437 42.5739133,5.61990182 C42.2700644,5.91568612 41.7558584,6.04583122 41.019609,6.04583122 C40.2716731,6.04583122 39.7457807,5.90385475 39.4419318,5.61990182 C39.1965153,5.38327437 39.1030233,5.08749007 39.1030233,4.57874106 L39.1030233,0.0354941167 L36.9760806,0.0354941167 L36.8942751,0.485086262 C36.8942751,0.485086262 36.9760806,0.615231357 37.0578861,0.780870568 C37.1513781,0.94650978 37.1747511,1.02932939 37.1864376,1.12398036 C37.1864376,1.13581174 37.1864376,4.64972929 37.1864376,4.64972929 C37.1864376,6.59007434 38.4836389,7.58390961 40.996236,7.58390961 L41.0546685,7.58390961 C43.5672657,7.58390961 44.794348,6.62556846 44.794348,4.64972929 L44.794348,0.0354941167 L42.9128218,0.0354941167 Z" id="Shape"></path>
                        <path d="M32.9442387,0.0354941167 L30.5601931,0.0354941167 C29.8356302,1.54990976 28.5734883,4.34211361 27.4048385,7.46559589 L29.3214242,7.46559589 C29.4733487,7.03966649 29.6369597,6.61373709 29.8005707,6.17597631 L33.7155476,6.17597631 C33.8791586,6.61373709 34.0427695,7.03966649 34.194694,7.46559589 L36.1112797,7.46559589 C34.9192569,4.33028224 33.6688016,1.54990976 32.9442387,0.0354941167 Z M30.3381496,4.77987439 C30.840669,3.51391756 31.3431884,2.31894896 31.7522159,1.38427055 C32.1612433,2.30711759 32.6637627,3.51391756 33.1662822,4.77987439 L30.3381496,4.77987439 Z" id="Shape"></path>
                    </g>
                    <rect id="Rectangle-path" fill="#FFCE00" fill-rule="nonzero" x="105.564139" y="0.047325489" width="3.80979845" height="33.5419403"></rect>
                    <g id="Group" fill-rule="nonzero">
                        <path d="M25.7453558,16.1853172 C25.1844038,14.9785173 23.852143,12.363784 22.5198822,9.8910272 C20.6266695,6.41260376 17.6699854,1.45525879 17.3661365,1.02932939 C17.284331,0.911015663 17.214212,0.840027429 17.144093,0.79270194 C17.1090335,0.769039196 17.073974,0.745376451 17.027228,0.733545079 C16.957109,0.709882335 16.7818116,0.721713707 16.6649466,0.733545079 C16.5948276,0.745376451 16.5130221,0.733545079 16.4545896,0.733545079 C15.8235187,0.709882335 14.5496904,0.674388218 13.2992351,0.674388218 C11.7566173,0.674388218 9.91015056,0.721713707 9.66473409,0.745376451 C9.53618261,0.757207824 9.48943662,0.780870568 9.44269063,0.804533313 C9.38425814,0.840027429 9.31413915,0.875521546 9.22064716,1.01749801 C8.9284847,1.45525879 5.96011413,6.40077239 4.06690141,9.87919583 C2.7229541,12.3519526 1.4023798,14.9666859 0.841427878,16.1734859 C0.6895034,16.4929329 0.666130403,16.7058976 0.666130403,16.8005486 C0.666130403,16.9780192 0.724562895,17.1909839 0.841427878,17.4276113 C1.4023798,18.6344113 2.7346406,21.2491446 4.06690141,23.7219014 C5.96011413,27.2003248 8.9167982,32.1576698 9.22064716,32.5835992 C9.26739315,32.6545874 9.31413915,32.7019129 9.34919864,32.7492384 C9.41931763,32.8202266 9.47775012,32.8675521 9.54786911,32.8912148 C9.6179881,32.9148776 9.76991258,32.9030462 9.89846406,32.8912148 C9.96858305,32.8793835 10.0503885,32.8912148 10.108821,32.8912148 C10.8684434,32.9148776 12.0370932,32.9503717 13.2758621,32.9503717 C14.8184798,32.9503717 16.6065141,32.9148776 16.8753035,32.8793835 L16.9220495,32.8793835 C17.027228,32.8675521 17.0856605,32.8557207 17.1090335,32.832058 C17.167466,32.8083952 17.2258985,32.7610697 17.35445,32.5835992 C17.6582989,32.1576698 20.6032965,27.2239875 22.4965092,23.7455641 C23.8404565,21.2728073 25.1610308,18.658074 25.7219828,17.4512741 C25.8739072,17.131827 25.8972802,16.8833682 25.8972802,16.7768858 C25.9206532,16.5994153 25.8622207,16.433776 25.7453558,16.1853172 Z M17.0155415,17.4749368 C15.7533997,20.3499603 14.8535393,22.1364975 13.5212785,24.727568 C13.439473,24.8813758 13.3810406,24.9760268 13.2992351,24.9760268 C13.2057431,24.9760268 13.1473106,24.8813758 13.0771916,24.727568 C11.7449308,22.1364975 10.8450704,20.3381289 9.58292861,17.4749368 C9.47775012,17.226478 9.39594463,17.0490074 9.39594463,16.81238 C9.39594463,16.5875839 9.47775012,16.4101133 9.58292861,16.1616545 C10.8450704,13.286631 11.7449308,11.5000938 13.0771916,8.9090233 C13.1589971,8.75521546 13.2174296,8.66056448 13.2992351,8.66056448 C13.2992351,8.66056448 13.2992351,8.66056448 13.2992351,8.66056448 C13.2992351,8.66056448 13.2992351,8.66056448 13.2992351,8.66056448 C13.2992351,8.66056448 13.2992351,8.66056448 13.2992351,8.66056448 C13.3927271,8.66056448 13.4511595,8.75521546 13.5212785,8.9090233 C14.8535393,11.5000938 15.7533997,13.2984624 17.0155415,16.1616545 C17.12072,16.4101133 17.2025255,16.5875839 17.2025255,16.8242113 C17.2025255,17.0490074 17.12072,17.226478 17.0155415,17.4749368 Z" id="Shape" fill="url(#linearGradient-1)"></path>
                        <path d="M25.7453558,16.1853172 C25.1844038,14.9785173 23.852143,12.363784 22.5198822,9.8910272 C20.6266695,6.41260376 17.6699854,1.45525879 17.3661365,1.02932939 C17.284331,0.911015663 17.214212,0.840027429 17.144093,0.79270194 C17.1090335,0.769039196 17.073974,0.745376451 17.027228,0.733545079 C16.957109,0.709882335 16.7818116,0.721713707 16.6649466,0.733545079 C16.5948276,0.745376451 16.5130221,0.733545079 16.4545896,0.733545079 C15.8235187,0.709882335 14.5496904,0.674388218 13.2992351,0.674388218 C11.7566173,0.674388218 9.91015056,0.721713707 9.66473409,0.745376451 C9.53618261,0.757207824 9.48943662,0.780870568 9.44269063,0.804533313 C9.38425814,0.840027429 9.31413915,0.875521546 9.22064716,1.01749801 C8.9284847,1.45525879 5.96011413,6.40077239 4.06690141,9.87919583 C2.7229541,12.3519526 1.4023798,14.9666859 0.841427878,16.1734859 C0.6895034,16.4929329 0.666130403,16.7058976 0.666130403,16.8005486 C0.666130403,16.9780192 0.724562895,17.1909839 0.841427878,17.4276113 C1.4023798,18.6344113 2.7346406,21.2491446 4.06690141,23.7219014 C5.96011413,27.2003248 8.9167982,32.1576698 9.22064716,32.5835992 C9.26739315,32.6545874 9.31413915,32.7019129 9.34919864,32.7492384 C9.41931763,32.8202266 9.47775012,32.8675521 9.54786911,32.8912148 C9.6179881,32.9148776 9.76991258,32.9030462 9.89846406,32.8912148 C9.96858305,32.8793835 10.0503885,32.8912148 10.108821,32.8912148 C10.8684434,32.9148776 12.0370932,32.9503717 13.2758621,32.9503717 C14.8184798,32.9503717 16.6065141,32.9148776 16.8753035,32.8793835 L16.9220495,32.8793835 C17.027228,32.8675521 17.0856605,32.8557207 17.1090335,32.832058 C17.167466,32.8083952 17.2258985,32.7610697 17.35445,32.5835992 C17.6582989,32.1576698 20.6032965,27.2239875 22.4965092,23.7455641 C23.8404565,21.2728073 25.1610308,18.658074 25.7219828,17.4512741 C25.8739072,17.131827 25.8972802,16.8833682 25.8972802,16.7768858 C25.9206532,16.5994153 25.8622207,16.433776 25.7453558,16.1853172 Z M17.0155415,17.4749368 C15.7533997,20.3499603 14.8535393,22.1364975 13.5212785,24.727568 C13.439473,24.8813758 13.3810406,24.9760268 13.2992351,24.9760268 C13.2057431,24.9760268 13.1473106,24.8813758 13.0771916,24.727568 C11.7449308,22.1364975 10.8450704,20.3381289 9.58292861,17.4749368 C9.47775012,17.226478 9.39594463,17.0490074 9.39594463,16.81238 C9.39594463,16.5875839 9.47775012,16.4101133 9.58292861,16.1616545 C10.8450704,13.286631 11.7449308,11.5000938 13.0771916,8.9090233 C13.1589971,8.75521546 13.2174296,8.66056448 13.2992351,8.66056448 C13.2992351,8.66056448 13.2992351,8.66056448 13.2992351,8.66056448 C13.2992351,8.66056448 13.2992351,8.66056448 13.2992351,8.66056448 C13.2992351,8.66056448 13.2992351,8.66056448 13.2992351,8.66056448 C13.3927271,8.66056448 13.4511595,8.75521546 13.5212785,8.9090233 C14.8535393,11.5000938 15.7533997,13.2984624 17.0155415,16.1616545 C17.12072,16.4101133 17.2025255,16.5875839 17.2025255,16.8242113 C17.2025255,17.0490074 17.12072,17.226478 17.0155415,17.4749368 Z" id="Shape" fill="url(#radialGradient-2)"></path>
                        <g transform="translate(1.168650, 16.682235)" fill="url(#linearGradient-3)" id="Shape">
                            <path d="M7.43261292,1.18313722 C7.43261292,1.18313722 7.05864497,0.47325489 7.04695847,0.201133328 C7.04695847,0.165639211 7.04695847,0.153807839 7.04695847,0.118313722 C7.05864497,0.047325489 7.02358548,0.0709882335 6.96515299,0.130145095 C6.8599745,0.236627445 6.66130403,0.331278423 6.1938441,0.331278423 C5.78481666,0.331278423 2.24380767,0.331278423 0.572638417,0.331278423 C0.327221952,0.331278423 0,0.307615678 0,0.709882335 C0,0.94650978 0.198670471,1.4079333 0.607697912,2.22429798 C2.83981909,6.6492312 5.31735673,11.0623331 7.98187834,15.3807839 C7.98187834,15.3807839 8.39090578,16.0433408 8.42596527,16.0906663 C8.47271127,16.1379917 8.51945726,16.1616545 8.61294925,16.1616545 C8.61294925,16.1616545 10.295805,13.0381722 11.6631253,9.63073701 C10.1438805,6.79120767 8.74150073,3.99900382 7.43261292,1.18313722 Z"></path>
                        </g>
                        <path d="M25.6051178,16.8597055 C25.5466853,16.9188623 25.3713878,17.0135133 24.9974199,17.0135133 C24.8571819,17.0135133 21.7252003,17.0135133 20.35788,17.0135133 C18.2309373,17.0135133 18.4529808,16.9543564 17.8920289,18.0901682 C17.6466124,18.5989172 17.3895095,19.1904858 17.1324065,19.6874034 C15.2742533,23.615419 10.7515784,31.530607 10.132194,32.5007796 C9.89846406,32.8675521 9.86340457,32.8912148 10.038702,32.8912148 C10.038702,32.8912148 11.5696333,32.9503717 13.2875486,32.9503717 C15.9637567,32.9503717 16.910363,32.8793835 16.910363,32.8793835 C18.4646673,30.4421208 22.1576008,24.2543131 24.7870629,18.8947015 C25.3947608,17.6642388 25.6986098,17.1199956 25.6635503,16.8597055 C25.6752368,16.8005486 25.6284908,16.8360427 25.6051178,16.8597055 Z" id="Shape" fill="url(#linearGradient-4)"></path>
                        <path d="M16.7934981,0.804533313 C16.6766331,0.804533313 16.5948276,0.887352918 16.4429031,1.13581174 C15.1340153,3.19447051 10.6113405,11.8195409 8.76487373,15.8422074 C8.54283026,16.3391251 8.42596527,16.5757525 8.42596527,16.81238 L9.38425814,16.81238 C9.38425814,16.81238 9.38425814,16.81238 9.38425814,16.81238 C9.38425814,16.5875839 9.46606362,16.4101133 9.57124211,16.1616545 C10.8333839,13.286631 11.7332443,11.5000938 13.0655051,8.9090233 C13.1473106,8.75521546 13.2057431,8.66056448 13.2875486,8.66056448 C13.2875486,8.66056448 13.2875486,8.66056448 13.2875486,8.66056448 L13.6615165,7.56024687 C14.9704043,4.25929401 16.7934981,0.804533313 16.7934981,0.804533313 Z" id="Shape" fill="url(#linearGradient-5)"></path>
                        <path d="M18.1608184,16.8242113 C18.1608184,16.5875839 18.0556399,16.3509564 17.8219099,15.8658702 C16.5480816,13.1209918 15.2041343,10.4471017 13.6615165,7.56024687 L13.2875486,8.66056448 C13.2875486,8.66056448 13.2875486,8.66056448 13.2875486,8.66056448 C13.2875486,8.66056448 13.2875486,8.66056448 13.2875486,8.66056448 C13.3810406,8.66056448 13.439473,8.75521546 13.509592,8.9090233 C14.8418528,11.5000938 15.7417132,13.2984624 17.003855,16.1616545 C17.1090335,16.4101133 17.190839,16.5875839 17.190839,16.8242113 C17.190839,16.8242113 17.190839,16.8242113 17.190839,16.8242113 L18.1608184,16.8242113 Z" id="Shape" fill="url(#linearGradient-6)"></path>
                        <path d="M13.2875486,24.9760268 C13.2875486,24.9760268 13.2875486,24.9760268 13.2875486,24.9760268 C13.1940566,24.9760268 13.1356241,24.8813758 13.0655051,24.727568 C11.7332443,22.1364975 10.8333839,20.3381289 9.57124211,17.4749368 C9.46606362,17.226478 9.38425814,17.0490074 9.38425814,16.81238 C9.38425814,16.81238 9.38425814,16.81238 9.38425814,16.81238 L8.42596527,16.81238 C8.42596527,17.0490074 8.53114376,17.2974662 8.76487373,17.7825525 C10.038702,20.5274308 11.3709628,23.201321 12.9135806,26.0881758 L13.2875486,24.9760268 Z" id="Shape" fill="url(#linearGradient-7)"></path>
                        <path d="M13.2875486,24.9760268 C13.2875486,24.9760268 13.2875486,24.9760268 13.2875486,24.9760268 C13.1940566,24.9760268 13.1356241,24.8813758 13.0655051,24.727568 C11.7332443,22.1364975 10.8333839,20.3381289 9.57124211,17.4749368 C9.46606362,17.226478 9.38425814,17.0490074 9.38425814,16.81238 C9.38425814,16.81238 9.38425814,16.81238 9.38425814,16.81238 L8.42596527,16.81238 C8.42596527,17.0490074 8.53114376,17.2974662 8.76487373,17.7825525 C10.038702,20.5274308 11.3709628,23.201321 12.9135806,26.0881758 L13.2875486,24.9760268 Z" id="Shape" fill="url(#linearGradient-8)"></path>
                        <path d="M9.78159908,32.832058 C9.88677756,32.832058 10.015329,32.7019129 10.155567,32.4771168 C10.1906265,32.41796 10.249059,32.323309 10.3074915,32.2168266 C11.2891574,30.513109 16.0572487,21.6159171 17.8102234,17.7825525 C18.0322669,17.2856349 18.1491319,17.0490074 18.1491319,16.8005486 L17.190839,16.8005486 C17.190839,16.8005486 17.190839,16.8005486 17.190839,16.8005486 C17.190839,17.037176 17.1090335,17.2146466 17.003855,17.4512741 C15.7417132,20.3262975 14.8418528,22.1128347 13.509592,24.7039052 C13.4277865,24.8577131 13.3693541,24.9523641 13.2875486,24.9523641 L12.9018941,26.0645131 C11.5345738,29.5784306 9.78159908,32.832058 9.78159908,32.832058 Z" id="Shape" fill="url(#linearGradient-9)"></path>
                        <path d="M9.36088514,32.7610697 C9.32582564,32.7137443 9.27907965,32.6664188 9.23233366,32.5954305 C8.9284847,32.1695011 5.97180063,27.2121562 4.07858791,23.7337327 C2.7346406,21.2609759 1.41406629,18.6462427 0.853114376,17.4394427 C0.736249393,17.1909839 0.677816901,16.9780192 0.677816901,16.81238 L0.0584324915,16.81238 C0.0584324915,17.0253447 0.105178485,17.3092976 0.292162458,17.7115643 C0.736249393,18.6817368 1.96333171,21.1308308 3.54100898,24.0413484 C5.25892424,27.2121562 8.39090578,32.4889482 8.74150073,32.9740344 C8.88173871,33.1751678 9.01029019,33.2934815 9.12715517,33.3644697 L9.36088514,32.7610697 Z" id="Shape" fill="url(#linearGradient-10)"></path>
                        <path d="M9.10378218,33.3644697 C9.26739315,33.4709521 9.43100413,33.4827835 9.6179881,33.5064462 C10.085448,33.5537717 12.1188987,33.5774344 13.2875486,33.5774344 C14.4561984,33.5774344 16.6532601,33.5301089 16.957109,33.5064462 C17.097347,33.4946148 17.237585,33.4827835 17.3661365,33.4236266 L17.12072,32.832058 C17.0856605,32.8438894 17.027228,32.8675521 16.933736,32.8793835 L16.88699,32.8793835 C16.6182006,32.9148776 14.8184798,32.9503717 13.2875486,32.9503717 C12.0487797,32.9503717 10.8801299,32.926709 10.1205075,32.8912148 C10.062075,32.8912148 9.96858305,32.8912148 9.91015056,32.8912148 C9.78159908,32.9030462 9.6413611,32.9148776 9.55955561,32.8912148 C9.48943662,32.8675521 9.43100413,32.8202266 9.36088514,32.7492384 L9.10378218,33.3644697 Z" id="Shape" fill="url(#linearGradient-11)"></path>
                        <path d="M26.5400376,16.81238 C26.5400376,16.6349094 26.5049781,16.3272937 26.3063077,15.9131957 C25.8388477,14.9193604 24.3312895,11.9141919 23.0574611,9.58341152 C21.3629189,6.45992925 18.2192508,1.14764311 17.8569694,0.650725474 C17.6699854,0.390435284 17.518061,0.272121562 17.377823,0.201133328 L17.144093,0.780870568 C17.214212,0.828196057 17.284331,0.911015663 17.3661365,1.01749801 C17.6699854,1.44342741 20.6266695,6.40077239 22.5198822,9.87919583 C23.8638295,12.3519526 25.1844038,14.9666859 25.7453558,16.1734859 C25.8622207,16.4219447 25.9206532,16.5875839 25.9206532,16.7650545 L26.5400376,16.81238 Z" id="Shape" fill="url(#linearGradient-12)"></path>
                        <path d="M9.19727416,0.2129647 L9.44269063,0.816364685 C9.48943662,0.79270194 9.53618261,0.769039196 9.66473409,0.757207824 C9.91015056,0.733545079 11.7566173,0.68621959 13.2992351,0.68621959 C14.5496904,0.68621959 15.8235187,0.709882335 16.4545896,0.745376451 C16.5130221,0.745376451 16.6065141,0.745376451 16.6649466,0.745376451 C16.7934981,0.733545079 16.957109,0.721713707 17.027228,0.745376451 C17.0622875,0.757207824 17.1090335,0.780870568 17.144093,0.804533313 L17.377823,0.224796073 C17.237585,0.165639211 17.1090335,0.153807839 16.9454225,0.141976467 C16.4662761,0.094650978 14.3743929,0.0709882335 13.2875486,0.0709882335 C12.3292557,0.0709882335 10.0971345,0.094650978 9.57124211,0.153807839 C9.41931763,0.141976467 9.30245265,0.177470584 9.19727416,0.2129647 Z" id="Shape" fill="url(#linearGradient-13)"></path>
                        <path d="M9.19727416,0.2129647 C8.99860369,0.295784306 8.88173871,0.437760773 8.70644123,0.68621959 C8.34415979,1.15947448 5.21217824,6.50725474 3.52932249,9.58341152 C2.34898616,11.7485526 0.455773434,15.4990976 0.280475959,15.9131957 C0.105178485,16.3272937 0.0467459932,16.5994153 0.0467459932,16.81238 L0.666130403,16.81238 C0.666130403,16.717729 0.6895034,16.5047643 0.841427878,16.1853172 C1.4023798,14.9785173 2.7346406,12.363784 4.06690141,9.8910272 C5.96011413,6.41260376 8.9284847,1.46709016 9.22064716,1.02932939 C9.31413915,0.875521546 9.38425814,0.840027429 9.44269063,0.816364685 L9.19727416,0.2129647 Z" id="Shape" fill="url(#linearGradient-14)"></path>
                        <path d="M17.377823,33.4236266 C17.5297475,33.3526384 17.6816719,33.2343246 17.8569694,32.9740344 C18.1958779,32.5007796 21.5615894,26.8098895 23.0574611,24.0413484 C24.5533329,21.2846387 26.1310102,18.1019995 26.3063077,17.7115643 C26.5166646,17.226478 26.5400376,16.9898505 26.5400376,16.81238 L25.9206532,16.7768858 C25.9206532,16.8715368 25.8972802,17.131827 25.7453558,17.4512741 C25.1844038,18.658074 23.852143,21.2728073 22.5198822,23.7455641 C20.6266695,27.2239875 17.6816719,32.1576698 17.377823,32.5835992 C17.2492715,32.7610697 17.2025255,32.8083952 17.1324065,32.832058 C17.1324065,32.832058 17.1324065,32.832058 17.1324065,32.832058 L17.377823,33.4236266 Z" id="Shape" fill="url(#linearGradient-15)"></path>
                        <path d="M16.6649466,0.733545079 C16.6766331,0.733545079 16.6883196,0.733545079 16.7000061,0.733545079 C16.7000061,0.733545079 16.5480816,0.851858802 16.1390542,0.851858802 C15.6599077,0.851858802 14.6665554,0.828196057 13.8718735,0.828196057 C12.3993747,0.816364685 10.6464,0.851858802 9.82834507,0.887352918 C9.39594463,0.911015663 9.37257164,0.958341152 9.09209568,1.25412546 L9.23233366,1.04116076 C9.32582564,0.887352918 9.39594463,0.851858802 9.45437712,0.828196057 C9.50112312,0.804533313 9.54786911,0.780870568 9.67642059,0.769039196 C9.92183706,0.745376451 11.7683038,0.698050963 13.3109216,0.698050963 C14.5613769,0.698050963 15.8352052,0.721713707 16.4662761,0.757207824 C16.5130221,0.745376451 16.5948276,0.745376451 16.6649466,0.733545079" id="Shape" fill="#FFFFFF"></path>
                        <ellipse id="Oval" fill="url(#radialGradient-16)" cx="18.1257589" cy="16.9661878" rx="9.13884167" ry="9.2521331"></ellipse>
                        <path d="M17.0155415,16.1616545 C16.9687955,16.0433408 16.2559191,14.4224428 15.4378643,12.7305565 C14.5496904,10.8966938 13.556338,8.98001153 13.5212785,8.89719193 C13.439473,8.74338409 13.3810406,8.64873311 13.2992351,8.64873311 C13.2174296,8.64873311 13.1589971,8.73155272 13.0771916,8.89719193 C13.0304456,8.98001153 12.0254068,10.9440193 11.1489194,12.7305565 C10.2841185,14.5052624 9.6179881,16.0670035 9.57124211,16.1616545 C9.47775012,16.3627878 9.38425814,16.5875839 9.38425814,16.81238 C9.38425814,17.037176 9.46606362,17.226478 9.57124211,17.4749368 C9.6179881,17.5932505 10.342551,19.2259799 11.1489194,20.9178661 C12.0370932,22.7517288 13.0304456,24.6565798 13.0655051,24.7393994 C13.1356241,24.8932072 13.2057431,24.9878582 13.2875486,24.9878582 C13.3693541,24.9878582 13.439473,24.8932072 13.509592,24.7393994 C13.5446515,24.6565798 14.5380039,22.7635602 15.4261778,20.9178661 C16.2442326,19.2378113 16.957109,17.6050819 17.0155415,17.4749368 C17.12072,17.2146466 17.2025255,17.0490074 17.2025255,16.8242113 C17.2025255,16.5994153 17.1324065,16.4101133 17.0155415,16.1616545 Z M16.863617,17.3802858 L16.863617,17.3921172 C16.8519305,17.4039486 16.1273677,19.0721721 15.2859398,20.8232152 C14.5263174,22.3849563 13.7082625,23.9940229 13.3927271,24.6092543 L13.3810406,24.632917 C13.3459811,24.6920739 13.3226081,24.7393994 13.3109216,24.7393994 C13.2992351,24.7393994 13.2758621,24.6920739 13.2408026,24.632917 C13.2408026,24.6210856 13.2174296,24.5974229 13.1940566,24.538266 C12.3058827,22.8108857 11.6864983,21.5567602 11.3242169,20.8113838 C10.5178485,19.1313289 9.79328558,17.4985996 9.74653958,17.3802858 L9.73485308,17.3684545 C9.6413611,17.1554898 9.57124211,16.9780192 9.57124211,16.8005486 C9.57124211,16.623078 9.6530476,16.4219447 9.74653958,16.2326427 C9.74653958,16.2208113 9.76991258,16.1853172 9.79328558,16.1379917 C10.3074915,14.9666859 10.8216974,13.8427055 11.3242169,12.8133761 C12.2123907,10.9913448 13.2408026,9.00367428 13.2408026,8.99184291 C13.2641756,8.93268605 13.2992351,8.88536056 13.3109216,8.88536056 C13.3226081,8.88536056 13.3576676,8.93268605 13.3810406,8.99184291 C13.3927271,9.00367428 14.3860794,10.932188 15.2976263,12.8133761 C16.0923082,14.4697683 16.7934981,16.0551721 16.8753035,16.2326427 C16.980482,16.4692702 17.0389145,16.623078 17.0389145,16.81238 C17.027228,17.0016819 16.957109,17.1436584 16.863617,17.3802858 Z" id="Shape" fill="#000000"></path>
                        <path d="M26.3063077,15.9131957 C25.8271612,14.8956977 24.3312895,11.9141919 23.0574611,9.58341152 C21.3161729,6.38894101 18.2075644,1.13581174 17.8569694,0.650725474 C17.5063745,0.177470584 17.3193905,0.153807839 16.9921685,0.118313722 L16.9454225,0.118313722 C16.4779626,0.0709882335 14.4795714,0.047325489 13.2875486,0.047325489 C12.2591367,0.047325489 10.085448,0.0709882335 9.57124211,0.130145095 C9.09209568,0.177470584 8.9635442,0.331278423 8.69475474,0.68621959 C8.32078679,1.18313722 5.16543225,6.59007434 3.51763599,9.58341152 C2.32561316,11.760384 0.444086935,15.510929 0.268789461,15.9131957 C0.105178485,16.2799682 0.0350594949,16.5639211 0.0350594949,16.81238 C0.0350594949,17.0845015 0.105178485,17.3684545 0.268789461,17.7115643 C0.666130403,18.5752544 1.85815323,20.977023 3.51763599,24.0413484 C5.24723774,27.2358189 8.37921928,32.5126109 8.71812773,32.9740344 C9.06872268,33.4591207 9.30245265,33.4827835 9.6179881,33.5064462 C10.0971345,33.5537717 12.1773312,33.5774344 13.2875486,33.5774344 C14.4912579,33.5774344 16.6649466,33.5301089 16.957109,33.5064462 C17.2492715,33.4827835 17.5063745,33.4591207 17.8569694,32.9740344 C18.1725049,32.5362737 21.5382164,26.8453836 23.0574611,24.0413484 C24.5065869,21.3556269 26.1193237,18.1374937 26.3063077,17.7115643 C26.5049781,17.2501407 26.5400376,17.0016819 26.5400376,16.81238 C26.5400376,16.6585721 26.5166646,16.3391251 26.3063077,15.9131957 Z M26.1426967,17.640576 C25.9557127,18.054674 24.3546625,21.2728073 22.9055367,23.9585288 C21.3979784,26.7507326 18.0322669,32.4297913 17.7167314,32.8675521 C17.424569,33.2816501 17.237585,33.3053129 16.9454225,33.3289756 C16.6532601,33.3526384 14.4795714,33.3999639 13.2875486,33.3999639 C12.1773312,33.3999639 10.108821,33.3644697 9.6296746,33.3289756 C9.32582564,33.3053129 9.16221467,33.2816501 8.85836571,32.8675521 C8.53114376,32.4061286 5.39916221,27.1411679 3.66956047,23.9585288 C2.01007771,20.9060348 0.818054881,18.5042662 0.432400437,17.640576 C0.280475959,17.321129 0.222043468,17.0608388 0.222043468,16.81238 C0.222043468,16.5875839 0.292162458,16.3272937 0.444086935,15.9841839 C0.61938441,15.5819172 2.50091064,11.8432036 3.68124696,9.66623112 C5.32904322,6.67289395 8.47271127,1.2777882 8.84667921,0.780870568 C9.10378218,0.437760773 9.19727416,0.331278423 9.6063016,0.295784306 C10.108821,0.248458817 12.2825097,0.2129647 13.2992351,0.2129647 C14.4912579,0.2129647 16.4779626,0.236627445 16.933736,0.283952934 L16.980482,0.283952934 C17.284331,0.319447051 17.424569,0.331278423 17.7167314,0.745376451 C18.0673264,1.21863134 21.1642484,6.45992925 22.9055367,9.65439975 C24.1676785,11.9851801 25.6635503,14.9548545 26.1426967,15.9723525 C26.3296807,16.3627878 26.3530537,16.6585721 26.3530537,16.8005486 C26.3647402,16.9898505 26.3413672,17.2146466 26.1426967,17.640576 Z" id="Shape" fill="#000000"></path>
                    </g>
                    <g id="Group" transform="translate(33.072790, 23.662744)" fill="#000000" fill-rule="nonzero">
                        <path d="M2.22043468,0.425929401 C3.37739801,0.425929401 3.85654444,0.863690174 3.85654444,1.88118819 C3.85654444,2.8986862 3.36571151,3.33644697 2.22043468,3.33644697 L0.946606362,3.33644697 L0.946606362,5.1584783 L0.385654444,5.1584783 L0.385654444,0.875521546 C0.385654444,0.828196057 0.362281447,0.804533313 0.315535454,0.780870568 L0.105178485,0.68621959 L0.151924478,0.425929401 L2.22043468,0.425929401 Z M0.946606362,2.87502346 L2.18537518,2.87502346 C2.98005707,2.87502346 3.30727902,2.59107052 3.30727902,1.88118819 C3.30727902,1.17130585 2.98005707,0.887352918 2.18537518,0.887352918 L0.946606362,0.887352918 L0.946606362,2.87502346 Z" id="Shape"></path>
                        <path d="M6.64961753,4.80353713 C6.43926056,5.09932144 6.05360612,5.2412979 5.5043407,5.2412979 C4.61616683,5.2412979 4.21882589,4.92185085 4.21882589,4.23563126 C4.21882589,3.54941167 4.63953983,3.22996462 5.58614619,3.22996462 C5.94842763,3.22996462 6.28733609,3.27729011 6.57949854,3.37194109 L6.57949854,2.8986862 C6.57949854,2.31894896 6.28733609,2.08232152 5.57445969,2.08232152 C5.23555124,2.08232152 4.87326979,2.14147838 4.53436134,2.24796073 L4.53436134,1.79836858 C4.88495629,1.69188623 5.24723774,1.63272937 5.64457868,1.63272937 C6.68467703,1.63272937 7.12876396,2.02316465 7.12876396,2.93418032 L7.12876396,4.66156066 C7.12876396,4.72071753 7.14045046,4.74438027 7.18719645,4.75621164 L7.39755342,4.85086262 L7.33912093,5.13481555 L6.76648252,5.13481555 C6.71973652,5.13481555 6.70805002,5.13481555 6.70805002,5.07565869 L6.64961753,4.80353713 Z M6.57949854,3.77420775 C6.31070908,3.6677254 6.00686013,3.62039991 5.67963817,3.62039991 C5.04856727,3.62039991 4.7797778,3.78603912 4.7797778,4.22379989 C4.7797778,4.63789792 5.03688077,4.82719988 5.62120568,4.82719988 C6.28733609,4.82719988 6.57949854,4.59057243 6.57949854,4.08182342 L6.57949854,3.77420775 Z" id="Shape"></path>
                        <path d="M9.30245265,1.64456074 C9.68810709,1.64456074 10.0503885,1.7037176 10.389297,1.79836858 L10.295805,2.23612935 C9.98026955,2.129647 9.66473409,2.08232152 9.32582564,2.08232152 C8.75318723,2.08232152 8.49608426,2.27162347 8.49608426,2.62656464 C8.49608426,3.4547607 10.529535,2.82769797 10.529535,4.20013715 C10.529535,4.88635674 10.038702,5.22946653 9.17390117,5.22946653 C8.74150073,5.22946653 8.34415979,5.17030967 7.99356484,5.06382732 L7.99356484,4.61423518 C8.36753278,4.74438027 8.74150073,4.80353713 9.13884167,4.80353713 C9.73485308,4.80353713 10.0036425,4.59057243 10.0036425,4.21196852 C10.0036425,3.28912148 7.97019184,3.98717245 7.97019184,2.63839601 C7.95850534,1.96400779 8.46102477,1.64456074 9.30245265,1.64456074 Z" id="Shape"></path>
                        <path d="M12.4811802,1.64456074 C12.8668346,1.64456074 13.2291161,1.7037176 13.5680245,1.79836858 L13.4745325,2.23612935 C13.1589971,2.129647 12.8434616,2.08232152 12.5045532,2.08232152 C11.9319148,2.08232152 11.6748118,2.27162347 11.6748118,2.62656464 C11.6748118,3.4547607 13.7082625,2.82769797 13.7082625,4.20013715 C13.7082625,4.88635674 13.2174296,5.22946653 12.3526287,5.22946653 C11.9202283,5.22946653 11.5228873,5.17030967 11.1722924,5.06382732 L11.1722924,4.61423518 C11.5462603,4.74438027 11.9202283,4.80353713 12.3175692,4.80353713 C12.9135806,4.80353713 13.1823701,4.59057243 13.1823701,4.21196852 C13.1823701,3.28912148 11.1489194,3.98717245 11.1489194,2.63839601 C11.1372329,1.96400779 11.6397523,1.64456074 12.4811802,1.64456074 Z" id="Shape"></path>
                        <path d="M14.3977659,1.72738035 L15.0989558,1.72738035 C15.1457018,1.72738035 15.1573883,1.73921172 15.1573883,1.79836858 L15.1573883,5.14664693 L14.6081229,5.14664693 L14.6081229,2.20063524 C14.6081229,2.14147838 14.5964364,2.11781563 14.5496904,2.10598426 L14.3393334,2.01133328 L14.3977659,1.72738035 Z M14.8769123,0.331278423 C15.1223288,0.331278423 15.2391938,0.437760773 15.2391938,0.68621959 C15.2391938,0.934678407 15.1223288,1.04116076 14.8769123,1.04116076 C14.6198094,1.04116076 14.5146309,0.934678407 14.5146309,0.68621959 C14.5146309,0.437760773 14.6198094,0.331278423 14.8769123,0.331278423 Z" id="Shape"></path>
                        <path d="M17.6816719,1.64456074 C18.8503218,1.64456074 19.3411547,2.17697249 19.3411547,3.44292932 C19.3411547,4.70888615 18.8503218,5.2412979 17.6816719,5.2412979 C16.5130221,5.2412979 16.0105027,4.70888615 16.0105027,3.44292932 C16.0105027,2.17697249 16.5130221,1.64456074 17.6816719,1.64456074 Z M17.6816719,4.77987439 C18.4529808,4.77987439 18.7685163,4.3894391 18.7685163,3.43109795 C18.7685163,2.4727568 18.4529808,2.08232152 17.6816719,2.08232152 C16.8986765,2.08232152 16.5831411,2.4727568 16.5831411,3.43109795 C16.5831411,4.40127048 16.8986765,4.77987439 17.6816719,4.77987439 Z" id="Shape"></path>
                        <path d="M23.0925206,4.67339204 C23.0925206,4.7325489 23.1042071,4.75621164 23.1509531,4.76804302 L23.3613101,4.86269399 L23.3028776,5.14664693 L22.6016877,5.14664693 C22.5549417,5.14664693 22.5432552,5.13481555 22.5432552,5.07565869 L22.5432552,3.01699992 C22.5432552,2.35444308 22.2978388,2.10598426 21.6901408,2.10598426 C21.2577404,2.10598426 20.8370265,2.24796073 20.685102,2.35444308 L20.685102,5.14664693 L20.1241501,5.14664693 L20.1241501,2.20063524 C20.1241501,2.14147838 20.1124636,2.11781563 20.0657176,2.10598426 L19.8553606,2.01133328 L19.9137931,1.72738035 L20.614983,1.72738035 C20.661729,1.72738035 20.6734155,1.73921172 20.6734155,1.79836858 L20.6734155,2.03499603 C20.9071455,1.81019995 21.2694269,1.64456074 21.7719463,1.64456074 C22.7068662,1.64456074 23.0808341,2.03499603 23.0808341,3.00516855 L23.0808341,4.67339204 L23.0925206,4.67339204 Z" id="Shape"></path>
                        <path d="M26.5283511,1.72738035 L27.5450765,1.72738035 L27.5450765,2.16514112 L26.5283511,2.16514112 L26.5283511,5.14664693 L25.9673992,5.14664693 L25.9673992,2.24796073 C25.9673992,2.16514112 25.9673992,2.16514112 25.8972802,2.14147838 L25.4999393,2.02316465 L25.5466853,1.71554898 L25.9673992,1.71554898 L25.9673992,1.26595683 C25.9673992,0.437760773 26.3179942,0.094650978 27.159422,0.094650978 C27.439898,0.094650978 27.6619415,0.141976467 27.790493,0.189301956 L27.697001,0.627062729 C27.556763,0.57973724 27.3814655,0.544243123 27.2178545,0.544243123 C26.7270216,0.544243123 26.5166646,0.745376451 26.5166646,1.24229409 L26.5166646,1.72738035 L26.5283511,1.72738035 Z" id="Shape"></path>
                        <path d="M29.5551542,1.64456074 C30.723804,1.64456074 31.214637,2.17697249 31.214637,3.44292932 C31.214637,4.70888615 30.723804,5.2412979 29.5551542,5.2412979 C28.3865044,5.2412979 27.8839849,4.70888615 27.8839849,3.44292932 C27.8839849,2.17697249 28.3865044,1.64456074 29.5551542,1.64456074 Z M29.5551542,4.77987439 C30.3264631,4.77987439 30.6419985,4.3894391 30.6419985,3.43109795 C30.6419985,2.4727568 30.3264631,2.08232152 29.5551542,2.08232152 C28.7721588,2.08232152 28.4566234,2.4727568 28.4566234,3.43109795 C28.4566234,4.40127048 28.7721588,4.77987439 29.5551542,4.77987439 Z" id="Shape"></path>
                        <path d="M32.0210053,2.21246661 C32.0210053,2.15330975 32.0093188,2.129647 31.9625729,2.11781563 L31.7522159,2.02316465 L31.8106484,1.73921172 L32.5118383,1.73921172 C32.5585843,1.73921172 32.5702708,1.75104309 32.5702708,1.81019995 L32.5702708,2.15330975 C32.8273737,1.82203133 33.1896552,1.65639211 33.6688016,1.65639211 C33.7856666,1.65639211 33.9142181,1.66822349 33.9960236,1.68005486 L33.9025316,2.17697249 C33.8207261,2.15330975 33.7155476,2.129647 33.5869961,2.129647 C33.0961632,2.129647 32.8156872,2.29528622 32.5702708,2.50825092 L32.5702708,5.1584783 L32.0210053,5.1584783 L32.0210053,2.21246661 Z" id="Shape"></path>
                        <path d="M36.5436802,4.67339204 C36.5436802,4.7325489 36.5553667,4.75621164 36.6021127,4.76804302 L36.8124696,4.86269399 L36.7540372,5.14664693 L36.0528473,5.14664693 C36.0061013,5.14664693 35.9944148,5.13481555 35.9944148,5.07565869 L35.9944148,0.662556846 C35.9944148,0.603399985 35.9827283,0.57973724 35.9359823,0.567905868 L35.7256253,0.47325489 L35.7840578,0.189301956 L36.4852477,0.189301956 C36.5319937,0.189301956 36.5436802,0.201133328 36.5436802,0.260290189 L36.5436802,4.67339204 Z" id="Shape"></path>
                        <path d="M37.595465,1.72738035 L38.2966549,1.72738035 C38.3434009,1.72738035 38.3550874,1.73921172 38.3550874,1.79836858 L38.3550874,5.14664693 L37.7941355,5.14664693 L37.7941355,2.20063524 C37.7941355,2.14147838 37.782449,2.11781563 37.735703,2.10598426 L37.525346,2.01133328 L37.595465,1.72738035 Z M38.0746115,0.331278423 C38.3200279,0.331278423 38.4368929,0.437760773 38.4368929,0.68621959 C38.4368929,0.934678407 38.3200279,1.04116076 38.0746115,1.04116076 C37.8175085,1.04116076 37.71233,0.934678407 37.71233,0.68621959 C37.71233,0.437760773 37.8175085,0.331278423 38.0746115,0.331278423 Z" id="Shape"></path>
                        <path d="M40.2366136,1.72738035 L41.253339,1.72738035 L41.253339,2.16514112 L40.2366136,2.16514112 L40.2366136,5.14664693 L39.6756617,5.14664693 L39.6756617,2.24796073 C39.6756617,2.16514112 39.6756617,2.16514112 39.6055427,2.14147838 L39.2082018,2.02316465 L39.2549478,1.71554898 L39.6756617,1.71554898 L39.6756617,1.26595683 C39.6756617,0.437760773 40.0262567,0.094650978 40.8676846,0.094650978 C41.1481605,0.094650978 41.370204,0.141976467 41.4987555,0.189301956 L41.4052635,0.627062729 C41.2650255,0.57973724 41.089728,0.544243123 40.926117,0.544243123 C40.4352841,0.544243123 40.2249271,0.745376451 40.2249271,1.24229409 L40.2249271,1.72738035 L40.2366136,1.72738035 Z" id="Shape"></path>
                        <path d="M43.1932977,1.64456074 C44.2217096,1.64456074 44.65411,2.16514112 44.65411,3.38377246 C44.65411,3.46659207 44.65411,3.5375803 44.6424235,3.59673716 L42.1298264,3.59673716 C42.1531994,4.44859596 42.5271673,4.79170576 43.4387142,4.79170576 C43.8009956,4.79170576 44.1515906,4.7325489 44.513872,4.62606655 L44.513872,5.07565869 C44.1749636,5.19397242 43.8009956,5.2412979 43.3919682,5.2412979 C42.1181399,5.2412979 41.580561,4.70888615 41.580561,3.44292932 C41.5922475,2.17697249 42.0713939,1.64456074 43.1932977,1.64456074 Z M42.1415129,3.21813325 L44.1282176,3.21813325 C44.1165311,2.38993719 43.8477416,2.05865877 43.2049842,2.05865877 C42.4687348,2.05865877 42.1648859,2.40176857 42.1415129,3.21813325 Z" id="Shape"></path>
                    </g>
                </g>
            </g>
        </g>
    </g>
</svg>